<?xml version="1.0" encoding="UTF-8"?>
<svg id="Layer_1" data-name="Layer 1" xmlns="http://www.w3.org/2000/svg" viewBox="0 0 244.93 51.68">
  <defs>
    <style>
      .cls-1 {
        fill: #b32126;
      }

      .cls-2 {
        fill: #231f20;
      }
    </style>
  </defs>
  <path class="cls-2" d="M218.58,0H25.84C11.57,0,0,11.57,0,25.84H0c0,14.27,11.57,25.84,25.84,25.84H218.58c14.27,0,25.84-11.57,25.84-25.84h0C244.42,11.57,232.85,0,218.58,0Zm17.89,25.62c0,7.89-6.39,14.28-14.28,14.28H25.47c-7.89,0-14.28-6.39-14.28-14.28h0c0-7.89,6.39-14.28,14.28-14.28H222.18c7.89,0,14.28,6.39,14.28,14.28h0Z"/>
  <circle class="cls-1" cx="25.61" cy="25.84" r="11.43"/>
  <rect class="cls-2" x="236.47" width="8.47" height="51.68"/>
</svg>